<?xml version="1.0" encoding="utf-8"?>
<!-- Generator: Adobe Illustrator 16.0.0, SVG Export Plug-In . SVG Version: 6.00 Build 0)  -->
<!DOCTYPE svg PUBLIC "-//W3C//DTD SVG 1.1//EN" "http://www.w3.org/Graphics/SVG/1.1/DTD/svg11.dtd">
<svg version="1.1" xmlns="http://www.w3.org/2000/svg" xmlns:xlink="http://www.w3.org/1999/xlink" x="0px" y="0px"
	 width="273.181px" height="103.468px" viewBox="0 0 273.181 103.468" enable-background="new 0 0 273.181 103.468"
	 xml:space="preserve">
<g id="Colour">
	<g>
		<g>
			<linearGradient id="SVGID_1_" gradientUnits="userSpaceOnUse" x1="66.7285" y1="43.3306" x2="261.7773" y2="43.3306">
				<stop  offset="0.1847" style="stop-color:#45B4E8"/>
				<stop  offset="0.6129" style="stop-color:#2E77BC"/>
			</linearGradient>
			<path fill="url(#SVGID_1_)" d="M104.604,59.1c-2.016,1.008-6.553,2.088-12.457,2.088c-16.777,0-25.418-10.441-25.418-24.266
				c0-16.562,11.809-25.778,26.499-25.778c5.688,0,10.009,1.152,11.953,2.16l-2.232,8.713c-2.232-0.936-5.329-1.8-9.217-1.8
				c-8.713,0-15.481,5.256-15.481,16.057c0,9.721,5.761,15.842,15.554,15.842c3.312,0,6.984-0.72,9.145-1.584L104.604,59.1z"/>
			<linearGradient id="SVGID_2_" gradientUnits="userSpaceOnUse" x1="66.7285" y1="43.3306" x2="261.7773" y2="43.3306">
				<stop  offset="0.1847" style="stop-color:#45B4E8"/>
				<stop  offset="0.6129" style="stop-color:#2E77BC"/>
			</linearGradient>
			<path fill="url(#SVGID_2_)" d="M111.8,11.936h11.017v39.315h19.297v9.217H111.8V11.936z"/>
			<linearGradient id="SVGID_3_" gradientUnits="userSpaceOnUse" x1="66.7285" y1="43.3306" x2="261.7773" y2="43.3306">
				<stop  offset="0.1847" style="stop-color:#45B4E8"/>
				<stop  offset="0.6129" style="stop-color:#2E77BC"/>
			</linearGradient>
			<path fill="url(#SVGID_3_)" d="M181.857,25.257c-0.144,2.232-0.288,5.185-0.288,10.441v19.658c0,6.769-1.368,12.313-5.329,15.841
				c-3.888,3.312-9.145,4.32-14.329,4.32c-4.608,0-9.505-0.936-12.673-2.736l2.16-8.281c2.232,1.296,6.121,2.665,10.225,2.665
				c5.185,0,9.145-2.809,9.145-9.289v-2.304h-0.144c-2.088,2.952-5.472,4.608-9.504,4.608c-8.713,0-14.906-7.057-14.906-17.209
				c0-11.305,7.345-18.505,15.986-18.505c4.824,0,7.849,2.088,9.648,4.968h0.144l0.36-4.176H181.857z M170.625,39.586
				c0-0.72-0.072-1.44-0.216-2.016c-0.792-2.88-2.88-4.824-5.904-4.824c-3.96,0-7.201,3.6-7.201,10.009
				c0,5.256,2.592,9.361,7.201,9.361c2.808,0,5.04-1.873,5.76-4.464c0.288-0.792,0.36-1.944,0.36-2.88V39.586z"/>
			<linearGradient id="SVGID_4_" gradientUnits="userSpaceOnUse" x1="66.7285" y1="43.3306" x2="261.7773" y2="43.3306">
				<stop  offset="0.1847" style="stop-color:#45B4E8"/>
				<stop  offset="0.6129" style="stop-color:#2E77BC"/>
			</linearGradient>
			<path fill="url(#SVGID_4_)" d="M198.775,46.354c0.359,4.537,4.824,6.697,9.937,6.697c3.744,0,6.769-0.504,9.721-1.44l1.44,7.417
				c-3.601,1.44-7.993,2.16-12.745,2.16c-11.953,0-18.794-6.913-18.794-17.93c0-8.929,5.545-18.793,17.786-18.793
				c11.377,0,15.697,8.856,15.697,17.569c0,1.872-0.216,3.528-0.36,4.32H198.775z M211.664,38.866c0-2.664-1.152-7.128-6.192-7.128
				c-4.608,0-6.48,4.176-6.769,7.128H211.664z"/>
			<linearGradient id="SVGID_5_" gradientUnits="userSpaceOnUse" x1="66.7285" y1="43.3306" x2="261.7773" y2="43.3306">
				<stop  offset="0.1847" style="stop-color:#45B4E8"/>
				<stop  offset="0.6129" style="stop-color:#2E77BC"/>
			</linearGradient>
			<path fill="url(#SVGID_5_)" d="M228.366,36.49c0-4.393-0.145-8.137-0.288-11.233h9.505l0.504,4.824h0.216
				c1.44-2.232,5.041-5.616,10.873-5.616c7.2,0,12.602,4.752,12.602,15.121v20.882h-10.945V40.954c0-4.537-1.584-7.633-5.545-7.633
				c-3.023,0-4.824,2.088-5.544,4.104c-0.288,0.648-0.433,1.728-0.433,2.736v20.306h-10.944V36.49z"/>
		</g>
	</g>
	<g id="Nodes">
	</g>
	<rect x="8.049" y="79.574" fill="none" width="256.575" height="19.751"/>
	<text transform="matrix(1 0 0 1 9.2979 91.9351)" fill="#878787" font-family="'MyriadPro-Regular'" font-size="17.41">Deep Learning Program Generator.</text>
	<g>
		<g>
			<line fill="#B2B2B2" stroke="#C6C6C6" stroke-miterlimit="10" x1="16.021" y1="16.314" x2="35.947" y2="36.174"/>
			<line fill="#B2B2B2" stroke="#C6C6C6" stroke-miterlimit="10" x1="35.914" y1="16.28" x2="55.84" y2="36.14"/>
			<line fill="#B2B2B2" stroke="#C6C6C6" stroke-miterlimit="10" x1="16.055" y1="36.207" x2="35.98" y2="56.065"/>
			<line fill="#B2B2B2" stroke="#C6C6C6" stroke-miterlimit="10" x1="35.947" y1="36.174" x2="55.873" y2="56.031"/>
			<line fill="#B2B2B2" stroke="#C6C6C6" stroke-miterlimit="10" x1="55.806" y1="16.247" x2="35.947" y2="36.174"/>
			<line fill="#B2B2B2" stroke="#C6C6C6" stroke-miterlimit="10" x1="35.914" y1="16.28" x2="16.055" y2="36.207"/>
			<line fill="#B2B2B2" stroke="#C6C6C6" stroke-miterlimit="10" x1="55.84" y1="36.14" x2="35.98" y2="56.065"/>
			<line fill="#B2B2B2" stroke="#C6C6C6" stroke-miterlimit="10" x1="35.947" y1="36.174" x2="16.088" y2="56.099"/>
			<line fill="#B2B2B2" stroke="#C6C6C6" stroke-miterlimit="10" x1="16.021" y1="16.314" x2="35.98" y2="56.065"/>
			<line fill="#B2B2B2" stroke="#C6C6C6" stroke-miterlimit="10" x1="35.914" y1="16.28" x2="55.873" y2="56.031"/>
			<line fill="#B2B2B2" stroke="#C6C6C6" stroke-miterlimit="10" x1="55.806" y1="16.246" x2="35.98" y2="56.065"/>
			<line fill="#B2B2B2" stroke="#C6C6C6" stroke-miterlimit="10" x1="35.914" y1="16.28" x2="16.088" y2="56.099"/>
		</g>
		<line fill="#9D9D9C" stroke="#C6C6C6" stroke-miterlimit="10" x1="57.454" y1="36.137" x2="16.055" y2="36.207"/>
	</g>
	<path fill="#215169" d="M20.962,16.114c-0.026,2.598-2.153,4.679-4.749,4.652c-2.594-0.027-4.677-2.152-4.649-4.75
		c0.027-2.593,2.152-4.676,4.747-4.648C18.906,11.394,20.989,13.52,20.962,16.114z"/>
	<circle fill="#215169" cx="16.263" cy="36.266" r="4.699"/>
	<circle fill="#215169" cx="16.263" cy="56.512" r="4.699"/>
	<circle fill="#378DB5" cx="35.947" cy="16.064" r="4.698"/>
	<circle fill="#378DB5" cx="35.947" cy="36.266" r="4.699"/>
	<circle fill="#378DB5" cx="35.947" cy="56.512" r="4.698"/>
	<circle fill="#45B4E8" cx="55.837" cy="16.064" r="4.7"/>
	<circle fill="#45B4E8" cx="55.633" cy="36.061" r="4.699"/>
	<circle fill="#45B4E8" cx="55.633" cy="56.512" r="4.699"/>
</g>
<g id="Monochrome" display="none">
	<rect x="64.208" y="9.348" display="inline" fill="none" width="202.122" height="66.667"/>
	<text transform="matrix(1 0 0 1 64.208 60.4678)" display="inline" font-family="'MyriadPro-Bold'" font-size="72">CLgen</text>
	<rect x="7.821" y="78.574" display="inline" fill="none" width="256.575" height="19.751"/>
	<text transform="matrix(1 0 0 1 8.9243 90.9492)" display="inline" font-family="'MyriadPro-Regular'" font-size="17.43">Deep Learning Program Generator.</text>
	<circle display="inline" cx="57.096" cy="15.435" r="3.665"/>
	<circle display="inline" cx="15.221" cy="15.001" r="3.665"/>
	<circle display="inline" cx="36.159" cy="15.218" r="3.664"/>
	<circle display="inline" cx="15.004" cy="35.94" r="3.665"/>
	<circle display="inline" cx="35.942" cy="36.157" r="3.664"/>
	<circle display="inline" cx="56.879" cy="36.374" r="3.664"/>
	<circle display="inline" cx="15.003" cy="57.312" r="3.665"/>
	<circle display="inline" cx="35.725" cy="57.094" r="3.664"/>
	<circle display="inline" cx="56.662" cy="57.311" r="3.664"/>
	<line display="inline" fill="none" stroke="#000000" stroke-miterlimit="10" x1="15.22" y1="15.001" x2="35.942" y2="36.157"/>
	<line display="inline" fill="none" stroke="#000000" stroke-miterlimit="10" x1="36.159" y1="15.218" x2="56.88" y2="36.374"/>
	<line display="inline" fill="none" stroke="#000000" stroke-miterlimit="10" x1="15.003" y1="35.94" x2="35.725" y2="57.095"/>
	<line display="inline" fill="none" stroke="#000000" stroke-miterlimit="10" x1="35.942" y1="36.157" x2="56.664" y2="57.312"/>
	<line display="inline" fill="none" stroke="#000000" stroke-miterlimit="10" x1="57.097" y1="15.435" x2="35.942" y2="36.157"/>
	<line display="inline" fill="none" stroke="#000000" stroke-miterlimit="10" x1="36.159" y1="15.218" x2="15.003" y2="35.94"/>
	<line display="inline" fill="none" stroke="#000000" stroke-miterlimit="10" x1="56.88" y1="36.374" x2="35.725" y2="57.095"/>
	<line display="inline" fill="none" stroke="#000000" stroke-miterlimit="10" x1="35.942" y1="36.157" x2="14.787" y2="56.878"/>
	<line display="inline" fill="none" stroke="#000000" stroke-miterlimit="10" x1="15.22" y1="15.001" x2="35.725" y2="57.095"/>
	<line display="inline" fill="none" stroke="#000000" stroke-miterlimit="10" x1="36.159" y1="15.218" x2="56.664" y2="57.312"/>
	<line display="inline" fill="none" stroke="#000000" stroke-miterlimit="10" x1="57.097" y1="15.435" x2="35.725" y2="57.095"/>
	<line display="inline" fill="none" stroke="#000000" stroke-miterlimit="10" x1="36.159" y1="15.218" x2="14.787" y2="56.878"/>
	<line display="inline" fill="none" stroke="#000000" stroke-miterlimit="10" x1="58.58" y1="36.391" x2="15.003" y2="35.94"/>
</g>
<g id="Guides" display="none">
	
		<line display="inline" fill="none" stroke="#3C3C3B" stroke-width="0.1" stroke-miterlimit="10" x1="261.815" y1="11.338" x2="11.501" y2="11.338"/>
	
		<line display="inline" fill="none" stroke="#3C3C3B" stroke-width="0.1" stroke-miterlimit="10" x1="261.815" y1="61.24" x2="11.556" y2="61.24"/>
	
		<line display="inline" fill="none" stroke="#3C3C3B" stroke-width="0.1" stroke-miterlimit="10" x1="11.501" y1="11.574" x2="11.501" y2="94.421"/>
	
		<line display="inline" fill="none" stroke="#3C3C3B" stroke-width="0.1" stroke-miterlimit="10" x1="261.815" y1="11.338" x2="261.815" y2="94.421"/>
	
		<line display="inline" fill="none" stroke="#3C3C3B" stroke-width="0.1" stroke-miterlimit="10" x1="11.556" y1="11.338" x2="11.556" y2="0"/>
	
		<line display="inline" fill="none" stroke="#3C3C3B" stroke-width="0.1" stroke-miterlimit="10" x1="11.338" y1="11.338" x2="0" y2="11.338"/>
	
		<line display="inline" fill="none" stroke="#3C3C3B" stroke-width="0.1" stroke-miterlimit="10" x1="261.815" y1="94.421" x2="11.556" y2="94.421"/>
	
		<line display="inline" fill="none" stroke="#3C3C3B" stroke-width="0.1" stroke-miterlimit="10" x1="26.533" y1="103.468" x2="26.533" y2="92.129"/>
	
		<line display="inline" fill="none" stroke="#3C3C3B" stroke-width="0.1" stroke-miterlimit="10" x1="11.501" y1="94.421" x2="0.163" y2="94.421"/>
	
		<line display="inline" fill="none" stroke="#3C3C3B" stroke-width="0.1" stroke-miterlimit="10" x1="261.815" y1="105.343" x2="261.815" y2="94.004"/>
	
		<line display="inline" fill="none" stroke="#3C3C3B" stroke-width="0.1" stroke-miterlimit="10" x1="273.154" y1="94.421" x2="261.815" y2="94.421"/>
	
		<line display="inline" fill="none" stroke="#3C3C3B" stroke-width="0.1" stroke-miterlimit="10" x1="261.817" y1="11.338" x2="261.817" y2="0"/>
	
		<line display="inline" fill="none" stroke="#3C3C3B" stroke-width="0.1" stroke-miterlimit="10" x1="273.154" y1="11.338" x2="261.815" y2="11.338"/>
	
		<line display="inline" fill="none" stroke="#3C3C3B" stroke-width="0.1" stroke-miterlimit="10" x1="273.154" y1="0" x2="0.163" y2="0"/>
	
		<line display="inline" fill="none" stroke="#3C3C3B" stroke-width="0.1" stroke-miterlimit="10" x1="288.212" y1="103.468" x2="15.222" y2="103.468"/>
	
		<line display="inline" fill="none" stroke="#3C3C3B" stroke-width="0.1" stroke-miterlimit="10" x1="0" y1="0" x2="0" y2="105.343"/>
	
		<line display="inline" fill="none" stroke="#3C3C3B" stroke-width="0.1" stroke-miterlimit="10" x1="273.154" y1="0.208" x2="273.154" y2="105.551"/>
</g>
</svg>
